<svg width="142" height="36" viewBox="0 0 142 36" fill="none" xmlns="http://www.w3.org/2000/svg">
<rect x="0.5" y="0.5" width="35" height="35" stroke="black"/>
<path d="M21.53 12.526C21.986 12.418 22.478 12.346 23.006 12.31C23.534 12.274 24.056 12.256 24.572 12.256C25.124 12.256 25.682 12.31 26.246 12.418C26.822 12.526 27.344 12.724 27.812 13.012C28.28 13.3 28.658 13.696 28.946 14.2C29.246 14.704 29.396 15.346 29.396 16.126C29.396 16.894 29.258 17.542 28.982 18.07C28.706 18.598 28.34 19.03 27.884 19.366C27.428 19.69 26.906 19.924 26.318 20.068C25.73 20.212 25.124 20.284 24.5 20.284C24.44 20.284 24.338 20.284 24.194 20.284C24.062 20.284 23.918 20.284 23.762 20.284C23.618 20.272 23.474 20.26 23.33 20.248C23.186 20.236 23.084 20.224 23.024 20.212V25H21.53V12.526ZM24.608 13.552C24.296 13.552 23.996 13.558 23.708 13.57C23.42 13.582 23.192 13.612 23.024 13.66V18.88C23.084 18.904 23.18 18.922 23.312 18.934C23.444 18.934 23.582 18.94 23.726 18.952C23.87 18.952 24.008 18.952 24.14 18.952C24.272 18.952 24.368 18.952 24.428 18.952C24.836 18.952 25.238 18.916 25.634 18.844C26.042 18.76 26.408 18.616 26.732 18.412C27.056 18.208 27.314 17.92 27.506 17.548C27.71 17.176 27.812 16.702 27.812 16.126C27.812 15.634 27.716 15.226 27.524 14.902C27.344 14.566 27.098 14.302 26.786 14.11C26.486 13.906 26.144 13.762 25.76 13.678C25.376 13.594 24.992 13.552 24.608 13.552ZM43.2667 19.222H37.2187V25H35.7247V12.4H37.2187V17.89H43.2667V12.4H44.7607V25H43.2667V19.222ZM52.1204 16H53.5604V25H52.1204V16ZM51.8144 13.264C51.8144 12.988 51.9044 12.754 52.0844 12.562C52.2764 12.358 52.5164 12.256 52.8044 12.256C53.0924 12.256 53.3384 12.358 53.5424 12.562C53.7464 12.754 53.8484 12.988 53.8484 13.264C53.8484 13.54 53.7464 13.768 53.5424 13.948C53.3384 14.128 53.0924 14.218 52.8044 14.218C52.5164 14.218 52.2764 14.128 52.0844 13.948C51.9044 13.768 51.8144 13.54 51.8144 13.264ZM60.1408 23.74L64.2988 18.016L65.0548 17.26H60.1408V16H66.5488V17.26L62.3548 23.038L61.6168 23.74H66.5488V25H60.1408V23.74ZM72.3316 23.74L76.4896 18.016L77.2456 17.26H72.3316V16H78.7396V17.26L74.5456 23.038L73.8076 23.74H78.7396V25H72.3316V23.74ZM85.0084 16.666C85.4644 16.39 85.9924 16.186 86.5924 16.054C87.2044 15.922 87.8404 15.856 88.5004 15.856C89.1244 15.856 89.6224 15.94 89.9944 16.108C90.3784 16.276 90.6664 16.498 90.8584 16.774C91.0624 17.038 91.1944 17.332 91.2544 17.656C91.3264 17.98 91.3624 18.304 91.3624 18.628C91.3624 19.348 91.3444 20.05 91.3084 20.734C91.2724 21.418 91.2544 22.066 91.2544 22.678C91.2544 23.122 91.2724 23.542 91.3084 23.938C91.3444 24.334 91.4104 24.7 91.5064 25.036H90.4444L90.0664 23.776H89.9764C89.8684 23.944 89.7304 24.112 89.5624 24.28C89.4064 24.436 89.2144 24.58 88.9864 24.712C88.7584 24.832 88.4944 24.934 88.1944 25.018C87.8944 25.102 87.5524 25.144 87.1684 25.144C86.7844 25.144 86.4244 25.084 86.0884 24.964C85.7644 24.844 85.4824 24.676 85.2424 24.46C85.0024 24.232 84.8104 23.962 84.6664 23.65C84.5344 23.338 84.4684 22.984 84.4684 22.588C84.4684 22.06 84.5764 21.622 84.7924 21.274C85.0084 20.914 85.3084 20.632 85.6924 20.428C86.0884 20.212 86.5564 20.062 87.0964 19.978C87.6484 19.882 88.2544 19.834 88.9144 19.834C89.0824 19.834 89.2444 19.834 89.4004 19.834C89.5684 19.834 89.7364 19.846 89.9044 19.87C89.9404 19.51 89.9584 19.186 89.9584 18.898C89.9584 18.238 89.8264 17.776 89.5624 17.512C89.2984 17.248 88.8184 17.116 88.1224 17.116C87.9184 17.116 87.6964 17.134 87.4564 17.17C87.2284 17.194 86.9884 17.236 86.7364 17.296C86.4964 17.344 86.2624 17.41 86.0344 17.494C85.8184 17.566 85.6264 17.65 85.4584 17.746L85.0084 16.666ZM87.5644 23.884C87.9004 23.884 88.2004 23.842 88.4644 23.758C88.7284 23.662 88.9564 23.548 89.1484 23.416C89.3404 23.272 89.4964 23.116 89.6164 22.948C89.7484 22.78 89.8444 22.618 89.9044 22.462V20.968C89.7364 20.956 89.5624 20.95 89.3824 20.95C89.2144 20.938 89.0464 20.932 88.8784 20.932C88.5064 20.932 88.1404 20.956 87.7804 21.004C87.4324 21.04 87.1204 21.118 86.8444 21.238C86.5804 21.346 86.3644 21.502 86.1964 21.706C86.0404 21.898 85.9624 22.144 85.9624 22.444C85.9624 22.864 86.1124 23.212 86.4124 23.488C86.7124 23.752 87.0964 23.884 87.5644 23.884ZM114.847 19.222H108.799V25H107.305V12.4H108.799V17.89H114.847V12.4H116.341V25H114.847V19.222ZM124.691 16V21.13C124.691 21.598 124.715 22.012 124.763 22.372C124.823 22.72 124.919 23.014 125.051 23.254C125.183 23.482 125.363 23.656 125.591 23.776C125.819 23.896 126.107 23.956 126.455 23.956C126.779 23.956 127.067 23.908 127.319 23.812C127.571 23.704 127.793 23.56 127.985 23.38C128.189 23.2 128.363 22.996 128.507 22.768C128.663 22.528 128.789 22.276 128.885 22.012V16H130.325V22.444C130.325 22.876 130.337 23.326 130.361 23.794C130.397 24.25 130.451 24.652 130.523 25H129.533L129.173 23.578H129.083C128.807 24.046 128.435 24.436 127.967 24.748C127.499 25.06 126.905 25.216 126.185 25.216C125.705 25.216 125.279 25.156 124.907 25.036C124.547 24.928 124.241 24.73 123.989 24.442C123.749 24.154 123.563 23.77 123.431 23.29C123.311 22.798 123.251 22.18 123.251 21.436V16H124.691ZM136.05 16H137.454V14.218L138.894 13.804V16H141.342V17.26H138.894V22.246C138.894 22.87 138.972 23.314 139.128 23.578C139.284 23.83 139.548 23.956 139.92 23.956C140.232 23.956 140.496 23.926 140.712 23.866C140.928 23.794 141.168 23.704 141.432 23.596L141.756 24.694C141.432 24.85 141.078 24.976 140.694 25.072C140.31 25.168 139.896 25.216 139.452 25.216C138.72 25.216 138.204 25.012 137.904 24.604C137.604 24.184 137.454 23.488 137.454 22.516V17.26H136.05V16Z" fill="black"/>
</svg>
